<?xml version="1.0" encoding="UTF-8"?>
<!DOCTYPE svg PUBLIC "-//W3C//DTD SVG 1.1//EN" "http://www.w3.org/Graphics/SVG/1.1/DTD/svg11.dtd">
<svg version="1.2" width="429.36mm" height="460.2mm" viewBox="-573 -294 42936 46020" preserveAspectRatio="xMidYMid" fill-rule="evenodd" stroke-width="28.222" stroke-linejoin="round" xmlns="http://www.w3.org/2000/svg" xmlns:ooo="http://xml.openoffice.org/svg/export" xmlns:xlink="http://www.w3.org/1999/xlink" xmlns:presentation="http://sun.com/xmlns/staroffice/presentation" xmlns:smil="http://www.w3.org/2001/SMIL20/" xmlns:anim="urn:oasis:names:tc:opendocument:xmlns:animation:1.0" xml:space="preserve">
 <defs class="EmbeddedBulletChars">
  <g id="bullet-char-template-57356" transform="scale(0.00048828125,-0.00048828125)">
   <path d="M 580,1141 L 1163,571 580,0 -4,571 580,1141 Z"/>
  </g>
  <g id="bullet-char-template-57354" transform="scale(0.00048828125,-0.00048828125)">
   <path d="M 8,1128 L 1137,1128 1137,0 8,0 8,1128 Z"/>
  </g>
  <g id="bullet-char-template-10146" transform="scale(0.00048828125,-0.00048828125)">
   <path d="M 174,0 L 602,739 174,1481 1456,739 174,0 Z M 1358,739 L 309,1346 659,739 1358,739 Z"/>
  </g>
  <g id="bullet-char-template-10132" transform="scale(0.00048828125,-0.00048828125)">
   <path d="M 2015,739 L 1276,0 717,0 1260,543 174,543 174,936 1260,936 717,1481 1274,1481 2015,739 Z"/>
  </g>
  <g id="bullet-char-template-10007" transform="scale(0.00048828125,-0.00048828125)">
   <path d="M 0,-2 C -7,14 -16,27 -25,37 L 356,567 C 262,823 215,952 215,954 215,979 228,992 255,992 264,992 276,990 289,987 310,991 331,999 354,1012 L 381,999 492,748 772,1049 836,1024 860,1049 C 881,1039 901,1025 922,1006 886,937 835,863 770,784 769,783 710,716 594,584 L 774,223 C 774,196 753,168 711,139 L 727,119 C 717,90 699,76 672,76 641,76 570,178 457,381 L 164,-76 C 142,-110 111,-127 72,-127 30,-127 9,-110 8,-76 1,-67 -2,-52 -2,-32 -2,-23 -1,-13 0,-2 Z"/>
  </g>
  <g id="bullet-char-template-10004" transform="scale(0.00048828125,-0.00048828125)">
   <path d="M 285,-33 C 182,-33 111,30 74,156 52,228 41,333 41,471 41,549 55,616 82,672 116,743 169,778 240,778 293,778 328,747 346,684 L 369,508 C 377,444 397,411 428,410 L 1163,1116 C 1174,1127 1196,1133 1229,1133 1271,1133 1292,1118 1292,1087 L 1292,965 C 1292,929 1282,901 1262,881 L 442,47 C 390,-6 338,-33 285,-33 Z"/>
  </g>
  <g id="bullet-char-template-9679" transform="scale(0.00048828125,-0.00048828125)">
   <path d="M 813,0 C 632,0 489,54 383,161 276,268 223,411 223,592 223,773 276,916 383,1023 489,1130 632,1184 813,1184 992,1184 1136,1130 1245,1023 1353,916 1407,772 1407,592 1407,412 1353,268 1245,161 1136,54 992,0 813,0 Z"/>
  </g>
  <g id="bullet-char-template-8226" transform="scale(0.00048828125,-0.00048828125)">
   <path d="M 346,457 C 273,457 209,483 155,535 101,586 74,649 74,723 74,796 101,859 155,911 209,963 273,989 346,989 419,989 480,963 531,910 582,859 608,796 608,723 608,648 583,586 532,535 482,483 420,457 346,457 Z"/>
  </g>
  <g id="bullet-char-template-8211" transform="scale(0.00048828125,-0.00048828125)">
   <path d="M -4,459 L 1135,459 1135,606 -4,606 -4,459 Z"/>
  </g>
  <g id="bullet-char-template-61548" transform="scale(0.00048828125,-0.00048828125)">
   <path d="M 173,740 C 173,903 231,1043 346,1159 462,1274 601,1332 765,1332 928,1332 1067,1274 1183,1159 1299,1043 1357,903 1357,740 1357,577 1299,437 1183,322 1067,206 928,148 765,148 601,148 462,206 346,322 231,437 173,577 173,740 Z"/>
  </g>
 </defs>
 <g class="Page">
  <g class="Group">
   <g class="com.sun.star.drawing.ClosedBezierShape">
    <g id="id3">
     <rect class="BoundingBox" stroke="none" fill="none" x="-573" y="7571" width="42936" height="38155"/>
     <path fill="none" stroke="rgb(229,48,103)" stroke-width="635" stroke-linejoin="miter" stroke-linecap="round" d="M 41032,10927 L 41060,10894 41075,10907 C 41061,10914 41046,10920 41032,10927 Z"/>
     <path fill="none" stroke="rgb(229,48,103)" stroke-width="635" stroke-linejoin="miter" stroke-linecap="round" d="M 39820,11613 C 38482,12526 37371,13839 36599,15420 35827,17001 35420,18795 35420,20621 35420,22446 35827,24240 36599,25821 37371,27402 38482,28715 39820,29628 40520,30105 41268,30464 42044,30698 L 41806,31441 41554,31361 41801,31456 40177,35689 39930,35594 40173,35698 39446,37393 39203,37289 39443,37402 38810,38747 38570,38635 38803,38760 38203,39877 37970,39752 38194,39892 37565,40902 37340,40762 37557,40914 37098,41570 36882,41418 37091,41580 36633,42171 36424,42009 36623,42183 36162,42711 35963,42537 36150,42723 35682,43192 35495,43005 35667,43206 35188,43619 35016,43419 35172,43632 34678,43993 34522,43780 34659,44006 34147,44318 34009,44093 34127,44329 33593,44597 33474,44360 33573,44605 32953,44856 32854,44611 32934,44863 32288,45066 32209,44814 32269,45072 31603,45227 31543,44969 31584,45231 30904,45338 30863,45076 30885,45340 30193,45398 30171,45134 30175,45399 29478,45407 29475,45143 29459,45407 28762,45365 28777,45101 28742,45363 28049,45271 28084,45009 28031,45268 27618,45183 27672,44924 27610,45181 27025,45041 27087,44783 27020,45039 26417,44883 26484,44627 26411,44882 25945,44748 26017,44494 25930,44744 24765,44335 23806,44002 23179,43810 22946,43755 22732,43717 22517,43691 22278,43672 22117,43663 21983,43665 21928,43670 21871,43678 21812,43690 21752,43705 21603,43755 21419,43831 20887,44081 20519,44256 20406,44016 20511,44259 20161,44411 20056,44168 20151,44415 19813,44547 19717,44300 19802,44550 19469,44663 19384,44413 19458,44667 19125,44764 19051,44510 19113,44767 18774,44849 18711,44592 18763,44851 18411,44921 18359,44661 18401,44922 18030,44981 17989,44720 18015,44983 17755,45009 17729,44746 17743,45010 17388,45029 17374,44765 17379,45030 16502,45047 16497,44783 16494,45047 15596,45037 15599,44773 15588,45037 15207,45021 15218,44757 15197,45021 14902,44998 14923,44734 14893,44997 14024,44899 14054,44636 14015,44897 13428,44811 13466,44549 13414,44809 13178,44761 13230,44502 13167,44758 12944,44703 13008,44447 12931,44700 12447,44553 12524,44300 12434,44549 11646,44264 11736,44015 11629,44257 10883,43925 10990,43684 10865,43916 10157,43535 10282,43302 10139,43524 9465,43090 9609,42868 9449,43078 8806,42589 8966,42378 8790,42576 8174,42029 8349,41831 8160,42016 7567,41409 7756,41224 7556,41396 6982,40726 7183,40554 6972,40713 6510,40102 6722,39942 6502,40091 6032,39394 6251,39246 6025,39384 5549,38611 5775,38472 5544,38602 5068,37760 5298,37630 5062,37749 4125,35892 4361,35773 4118,35879 3233,33848 3476,33742 3229,33837 2482,31882 2730,31788 2479,31872 1817,29912 2068,29828 1814,29902 1239,27942 1493,27867 1236,27931 749,25974 1006,25910 747,25965 366,24150 625,24096 364,24140 74,22458 335,22413 72,22447 -127,20894 136,20861 -128,20881 -236,19453 27,19433 -237,19437 -255,18132 10,18129 -254,18112 -181,16926 83,16942 -179,16903 -16,15831 245,15871 -12,15811 103,15318 361,15378 107,15303 244,14837 498,14912 249,14822 369,14489 618,14579 374,14476 508,14157 752,14260 514,14144 664,13838 901,13954 671,13824 835,13531 1066,13661 843,13518 1023,13236 1246,13379 1032,13224 1228,12953 1443,13108 1238,12941 1451,12681 1655,12848 1460,12670 1690,12419 1885,12598 1702,12406 2039,12086 2221,12277 2053,12073 2413,11777 2581,11982 2428,11766 2813,11494 2966,11710 2829,11483 3241,11234 3377,11461 3256,11226 3697,10998 3819,11233 3712,10991 4185,10783 4291,11026 4199,10778 4705,10590 4797,10838 4718,10585 5259,10415 5338,10668 5275,10411 6099,10209 6162,10466 6117,10205 7015,10050 7061,10311 7031,10048 7988,9940 8017,10203 8001,9939 9001,9879 9017,10143 9014,9878 10040,9866 10043,10131 10052,9867 11089,9904 11080,10168 11102,9905 12134,9992 12112,10255 12148,9993 13159,10131 13124,10393 13172,10133 14046,10295 13997,10555 14057,10297 15025,10523 14965,10781 15037,10526 17851,11319 17780,11574 17853,11320 19045,11663 19959,11897 20331,11977 20659,12036 20952,12077 21222,12101 21496,12120 21478,12384 21502,12120 21618,12131 21610,12213 21614,12217 21624,12132 21701,12141 21725,12143 21740,12143 21753,12143 21755,12289 21757,12301 21763,12341 21772,12374 21774,12379 21777,12383 21777,12383 21792,12379 21794,12114 21837,12114 21991,12112 22144,12104 22296,12090 22447,12072 22598,12048 22747,12019 22896,11985 23048,11944 23111,12182 23066,11953 23189,11929 23300,11904 23433,11865 23771,11747 24152,11594 24535,11420 24957,11210 25375,10979 26760,10128 26898,10354 26760,10128 27923,9417 28061,9642 27932,9412 28834,8904 28964,9134 28845,8898 29234,8702 29353,8939 29244,8698 29611,8531 29720,8772 29621,8526 29980,8381 30079,8626 29990,8377 30355,8246 30444,8495 30369,8241 30813,8110 30888,8364 30833,8105 31298,8005 31353,8264 31316,8002 31803,7934 31840,8195 31820,7932 32330,7895 32349,8159 32346,7894 32879,7889 32882,8153 32894,7889 33451,7915 33439,8179 33465,7916 34048,7973 34022,8236 34060,7974 34669,8063 34631,8325 34687,8066 35812,8310 35756,8569 35834,8316 36950,8660 36872,8913 36970,8667 38059,9101 37961,9347 38078,9110 39122,9624 39005,9862 39141,9634 40122,10220 39986,10447 40141,10232 41041,10879 40993,10945 C 40590,11132 40198,11356 39820,11613 Z"/>
     <path fill="none" stroke="rgb(229,48,103)" stroke-width="635" stroke-linejoin="miter" stroke-linecap="round" d="M 21596,12374 L 21595,12374 21594,12393 21594,12393 21596,12374 Z"/>
     <path fill="none" stroke="rgb(229,48,103)" stroke-width="635" stroke-linejoin="miter" stroke-linecap="round" d="M 21599,12350 L 21598,12349 21596,12372 21596,12372 21599,12350 Z"/>
     <path fill="none" stroke="rgb(229,48,103)" stroke-width="635" stroke-linejoin="miter" stroke-linecap="round" d="M 21602,12322 L 21600,12322 21598,12347 21599,12348 21602,12322 Z"/>
     <path fill="none" stroke="rgb(229,48,103)" stroke-width="635" stroke-linejoin="miter" stroke-linecap="round" d="M 21605,12292 L 21603,12290 21600,12320 21602,12320 21605,12292 Z"/>
     <path fill="none" stroke="rgb(229,48,103)" stroke-width="635" stroke-linejoin="miter" stroke-linecap="round" d="M 21609,12257 L 21606,12255 21603,12288 21606,12290 21609,12257 Z"/>
     <path fill="none" stroke="rgb(229,48,103)" stroke-width="635" stroke-linejoin="miter" stroke-linecap="round" d="M 21614,12219 L 21610,12215 21606,12253 21610,12255 21614,12219 Z"/>
    </g>
   </g>
   <g class="com.sun.star.drawing.ClosedBezierShape">
    <g id="id4">
     <rect class="BoundingBox" stroke="none" fill="none" x="21355" y="-294" width="8308" height="11880"/>
     <path fill="none" stroke="rgb(229,48,103)" stroke-width="529" stroke-linejoin="round" d="M 21641,10931 C 21560,10077 21718,9034 22098,7905 22478,6777 23068,5603 23807,4502 24547,3401 25411,2411 26311,1633 27212,854 28119,313 28939,66 29069,27 29196,-5 29320,-29 29345,95 29363,225 29376,360 29457,1214 29300,2257 28920,3385 28539,4514 27950,5688 27210,6789 26471,7890 25607,8880 24706,9658 23805,10437 22899,10977 22078,11225 21948,11264 21821,11296 21697,11320 21673,11196 21654,11066 21641,10931 Z"/>
    </g>
   </g>
  </g>
 </g>
</svg>